<svg width="331" height="23" viewBox="0 0 331 23" fill="none" xmlns="http://www.w3.org/2000/svg">
<path d="M16.74 22L14.7 16.66H4.17L2.13 22H0.45L8.61 0.999999H10.29L18.42 22H16.74ZM4.77 15.16H14.13L9.45 2.95L4.77 15.16ZM29.1272 6.67C31.2872 6.67 33.1172 7.43 34.6172 8.95C36.1372 10.45 36.8972 12.3 36.8972 14.5C36.8972 16.7 36.1372 18.56 34.6172 20.08C33.1172 21.58 31.2872 22.33 29.1272 22.33C27.7072 22.33 26.4272 21.99 25.2872 21.31C24.1672 20.63 23.2972 19.7 22.6772 18.52V22H21.1772V0.999999H22.6772V10.48C23.2972 9.3 24.1672 8.37 25.2872 7.69C26.4272 7.01 27.7072 6.67 29.1272 6.67ZM24.5072 19.03C25.7472 20.27 27.2572 20.89 29.0372 20.89C30.8172 20.89 32.3172 20.27 33.5372 19.03C34.7772 17.79 35.3972 16.28 35.3972 14.5C35.3972 12.72 34.7772 11.21 33.5372 9.97C32.3172 8.73 30.8172 8.11 29.0372 8.11C27.2572 8.11 25.7472 8.73 24.5072 9.97C23.2872 11.21 22.6772 12.72 22.6772 14.5C22.6772 16.28 23.2872 17.79 24.5072 19.03ZM53.7431 0.999999H55.2431V22H53.7431V18.52C53.1231 19.7 52.2431 20.63 51.1031 21.31C49.9831 21.99 48.7131 22.33 47.2931 22.33C45.1331 22.33 43.2931 21.58 41.7731 20.08C40.2731 18.56 39.5231 16.7 39.5231 14.5C39.5231 12.3 40.2731 10.45 41.7731 8.95C43.2931 7.43 45.1331 6.67 47.2931 6.67C48.7131 6.67 49.9831 7.01 51.1031 7.69C52.2431 8.37 53.1231 9.3 53.7431 10.48V0.999999ZM42.8531 19.03C44.0931 20.27 45.6031 20.89 47.3831 20.89C49.1631 20.89 50.6631 20.27 51.8831 19.03C53.1231 17.79 53.7431 16.28 53.7431 14.5C53.7431 12.72 53.1231 11.21 51.8831 9.97C50.6631 8.73 49.1631 8.11 47.3831 8.11C45.6031 8.11 44.0931 8.73 42.8531 9.97C41.6331 11.21 41.0231 12.72 41.0231 14.5C41.0231 16.28 41.6331 17.79 42.8531 19.03ZM70.6491 7H72.1491V22H70.6491V19.15C69.5691 21.27 67.7791 22.33 65.2791 22.33C63.4991 22.33 62.0791 21.79 61.0191 20.71C59.9791 19.61 59.4591 18.15 59.4591 16.33V7H60.9891V16.33C60.9891 17.73 61.3691 18.84 62.1291 19.66C62.9091 20.48 63.9991 20.89 65.3991 20.89C66.9391 20.89 68.1991 20.38 69.1791 19.36C70.1591 18.34 70.6491 16.86 70.6491 14.92V7ZM76.7827 22V0.0999994H78.2827V22H76.7827ZM96.1057 7H97.6357V22H96.1057V18.61C95.4657 19.77 94.5857 20.68 93.4657 21.34C92.3457 22 91.0757 22.33 89.6557 22.33C87.5157 22.33 85.6857 21.58 84.1657 20.08C82.6457 18.56 81.8857 16.7 81.8857 14.5C81.8857 12.3 82.6457 10.45 84.1657 8.95C85.6857 7.43 87.5157 6.67 89.6557 6.67C91.0757 6.67 92.3457 7 93.4657 7.66C94.5857 8.32 95.4657 9.23 96.1057 10.39V7ZM85.2457 19.03C86.4857 20.27 87.9957 20.89 89.7757 20.89C91.5557 20.89 93.0557 20.27 94.2757 19.03C95.4957 17.79 96.1057 16.28 96.1057 14.5C96.1057 12.72 95.4957 11.21 94.2757 9.97C93.0557 8.73 91.5557 8.11 89.7757 8.11C87.9957 8.11 86.4857 8.73 85.2457 9.97C84.0257 11.21 83.4157 12.72 83.4157 14.5C83.4157 16.28 84.0257 17.79 85.2457 19.03ZM103.652 20.53H112.922V22H101.522V21.01L110.522 8.47H101.822V7H112.622V7.99L103.652 20.53ZM122.38 6.67C124.58 6.67 126.36 7.45 127.72 9.01C129.1 10.57 129.79 12.42 129.79 14.56C129.79 14.64 129.78 14.76 129.76 14.92C129.76 15.08 129.76 15.2 129.76 15.28H116.17C116.35 16.96 117.02 18.32 118.18 19.36C119.36 20.38 120.81 20.89 122.53 20.89C123.73 20.89 124.78 20.64 125.68 20.14C126.58 19.64 127.26 18.98 127.72 18.16L129.04 18.94C128.42 19.98 127.54 20.81 126.4 21.43C125.26 22.03 123.96 22.33 122.5 22.33C120.2 22.33 118.31 21.6 116.83 20.14C115.35 18.66 114.61 16.78 114.61 14.5C114.61 12.26 115.33 10.4 116.77 8.92C118.23 7.42 120.1 6.67 122.38 6.67ZM122.38 8.11C120.68 8.11 119.26 8.64 118.12 9.7C116.98 10.76 116.33 12.13 116.17 13.81H128.23C128.07 12.03 127.43 10.64 126.31 9.64C125.21 8.62 123.9 8.11 122.38 8.11ZM140.046 6.67C142.246 6.67 144.026 7.45 145.386 9.01C146.766 10.57 147.456 12.42 147.456 14.56C147.456 14.64 147.446 14.76 147.426 14.92C147.426 15.08 147.426 15.2 147.426 15.28H133.836C134.016 16.96 134.686 18.32 135.846 19.36C137.026 20.38 138.476 20.89 140.196 20.89C141.396 20.89 142.446 20.64 143.346 20.14C144.246 19.64 144.926 18.98 145.386 18.16L146.706 18.94C146.086 19.98 145.206 20.81 144.066 21.43C142.926 22.03 141.626 22.33 140.166 22.33C137.866 22.33 135.976 21.6 134.496 20.14C133.016 18.66 132.276 16.78 132.276 14.5C132.276 12.26 132.996 10.4 134.436 8.92C135.896 7.42 137.766 6.67 140.046 6.67ZM140.046 8.11C138.346 8.11 136.926 8.64 135.786 9.7C134.646 10.76 133.996 12.13 133.836 13.81H145.896C145.736 12.03 145.096 10.64 143.976 9.64C142.876 8.62 141.566 8.11 140.046 8.11ZM151.552 20.53H160.822V22H149.422V21.01L158.422 8.47H149.722V7H160.522V7.99L151.552 20.53ZM186.867 22L184.827 16.66H174.297L172.257 22H170.577L178.737 0.999999H180.417L188.547 22H186.867ZM174.897 15.16H184.257L179.577 2.95L174.897 15.16ZM199.254 6.67C201.414 6.67 203.244 7.43 204.744 8.95C206.264 10.45 207.024 12.3 207.024 14.5C207.024 16.7 206.264 18.56 204.744 20.08C203.244 21.58 201.414 22.33 199.254 22.33C197.834 22.33 196.554 21.99 195.414 21.31C194.294 20.63 193.424 19.7 192.804 18.52V22H191.304V0.999999H192.804V10.48C193.424 9.3 194.294 8.37 195.414 7.69C196.554 7.01 197.834 6.67 199.254 6.67ZM194.634 19.03C195.874 20.27 197.384 20.89 199.164 20.89C200.944 20.89 202.444 20.27 203.664 19.03C204.904 17.79 205.524 16.28 205.524 14.5C205.524 12.72 204.904 11.21 203.664 9.97C202.444 8.73 200.944 8.11 199.164 8.11C197.384 8.11 195.874 8.73 194.634 9.97C193.414 11.21 192.804 12.72 192.804 14.5C192.804 16.28 193.414 17.79 194.634 19.03ZM223.87 0.999999H225.37V22H223.87V18.52C223.25 19.7 222.37 20.63 221.23 21.31C220.11 21.99 218.84 22.33 217.42 22.33C215.26 22.33 213.42 21.58 211.9 20.08C210.4 18.56 209.65 16.7 209.65 14.5C209.65 12.3 210.4 10.45 211.9 8.95C213.42 7.43 215.26 6.67 217.42 6.67C218.84 6.67 220.11 7.01 221.23 7.69C222.37 8.37 223.25 9.3 223.87 10.48V0.999999ZM212.98 19.03C214.22 20.27 215.73 20.89 217.51 20.89C219.29 20.89 220.79 20.27 222.01 19.03C223.25 17.79 223.87 16.28 223.87 14.5C223.87 12.72 223.25 11.21 222.01 9.97C220.79 8.73 219.29 8.11 217.51 8.11C215.73 8.11 214.22 8.73 212.98 9.97C211.76 11.21 211.15 12.72 211.15 14.5C211.15 16.28 211.76 17.79 212.98 19.03ZM240.776 7H242.276V22H240.776V19.15C239.696 21.27 237.906 22.33 235.406 22.33C233.626 22.33 232.206 21.79 231.146 20.71C230.106 19.61 229.586 18.15 229.586 16.33V7H231.116V16.33C231.116 17.73 231.496 18.84 232.256 19.66C233.036 20.48 234.126 20.89 235.526 20.89C237.066 20.89 238.326 20.38 239.306 19.36C240.286 18.34 240.776 16.86 240.776 14.92V7ZM246.91 22V0.0999994H248.41V22H246.91ZM266.233 7H267.763V22H266.233V18.61C265.593 19.77 264.713 20.68 263.593 21.34C262.473 22 261.203 22.33 259.783 22.33C257.643 22.33 255.813 21.58 254.293 20.08C252.773 18.56 252.013 16.7 252.013 14.5C252.013 12.3 252.773 10.45 254.293 8.95C255.813 7.43 257.643 6.67 259.783 6.67C261.203 6.67 262.473 7 263.593 7.66C264.713 8.32 265.593 9.23 266.233 10.39V7ZM255.373 19.03C256.613 20.27 258.123 20.89 259.903 20.89C261.683 20.89 263.183 20.27 264.403 19.03C265.623 17.79 266.233 16.28 266.233 14.5C266.233 12.72 265.623 11.21 264.403 9.97C263.183 8.73 261.683 8.11 259.903 8.11C258.123 8.11 256.613 8.73 255.373 9.97C254.153 11.21 253.543 12.72 253.543 14.5C253.543 16.28 254.153 17.79 255.373 19.03ZM273.779 20.53H283.049V22H271.649V21.01L280.649 8.47H271.949V7H282.749V7.99L273.779 20.53ZM292.507 6.67C294.707 6.67 296.487 7.45 297.847 9.01C299.227 10.57 299.917 12.42 299.917 14.56C299.917 14.64 299.907 14.76 299.887 14.92C299.887 15.08 299.887 15.2 299.887 15.28H286.297C286.477 16.96 287.147 18.32 288.307 19.36C289.487 20.38 290.937 20.89 292.657 20.89C293.857 20.89 294.907 20.64 295.807 20.14C296.707 19.64 297.387 18.98 297.847 18.16L299.167 18.94C298.547 19.98 297.667 20.81 296.527 21.43C295.387 22.03 294.087 22.33 292.627 22.33C290.327 22.33 288.437 21.6 286.957 20.14C285.477 18.66 284.737 16.78 284.737 14.5C284.737 12.26 285.457 10.4 286.897 8.92C288.357 7.42 290.227 6.67 292.507 6.67ZM292.507 8.11C290.807 8.11 289.387 8.64 288.247 9.7C287.107 10.76 286.457 12.13 286.297 13.81H298.357C298.197 12.03 297.557 10.64 296.437 9.64C295.337 8.62 294.027 8.11 292.507 8.11ZM310.173 6.67C312.373 6.67 314.153 7.45 315.513 9.01C316.893 10.57 317.583 12.42 317.583 14.56C317.583 14.64 317.573 14.76 317.553 14.92C317.553 15.08 317.553 15.2 317.553 15.28H303.963C304.143 16.96 304.813 18.32 305.973 19.36C307.153 20.38 308.603 20.89 310.323 20.89C311.523 20.89 312.573 20.64 313.473 20.14C314.373 19.64 315.053 18.98 315.513 18.16L316.833 18.94C316.213 19.98 315.333 20.81 314.193 21.43C313.053 22.03 311.753 22.33 310.293 22.33C307.993 22.33 306.103 21.6 304.623 20.14C303.143 18.66 302.403 16.78 302.403 14.5C302.403 12.26 303.123 10.4 304.563 8.92C306.023 7.42 307.893 6.67 310.173 6.67ZM310.173 8.11C308.473 8.11 307.053 8.64 305.913 9.7C304.773 10.76 304.123 12.13 303.963 13.81H316.023C315.863 12.03 315.223 10.64 314.103 9.64C313.003 8.62 311.693 8.11 310.173 8.11ZM321.679 20.53H330.949V22H319.549V21.01L328.549 8.47H319.849V7H330.649V7.99L321.679 20.53Z" fill="url(#paint0_linear)"/>
<defs>
<linearGradient id="paint0_linear" x1="46.5221" y1="1.51613" x2="58.5569" y2="55.8912" gradientUnits="userSpaceOnUse">
<stop offset="0.173143" stop-color="#1F5AF5"/>
<stop offset="0.433571" stop-color="#D090E0"/>
<stop offset="0.772126" stop-color="#D090E0"/>
<stop offset="0.944008" stop-color="#7F7FF7"/>
</linearGradient>
</defs>
</svg>
