<svg width="70" height="70" viewBox="0 0 70 70" fill="none" xmlns="http://www.w3.org/2000/svg">
<path d="M0 60.9741C0 65.9594 4.04113 70 9.0259 70H60.9738C65.9594 70 70 65.9589 70 60.9741V9.02617C70 4.04059 65.9589 0 60.9741 0H9.02617C4.04059 0 0 4.04113 0 9.0259V60.9738V60.9741Z" fill="url(#paint0_linear)"/>
<path d="M29.0276 30.9635V21.0506H37.7533C38.5846 21.0506 39.3857 21.1198 40.1574 21.2584C40.929 21.3968 41.6118 21.6439 42.2054 22.0002C42.7988 22.3565 43.2738 22.8512 43.63 23.4842C43.9861 24.1175 44.1643 24.9288 44.1643 25.9178C44.1643 27.6987 43.63 28.9849 42.5614 29.7763C41.4931 30.5679 40.1278 30.9635 38.4656 30.9635H29.0276ZM19.708 13.8086V56.1914H40.2465C42.1461 56.1914 43.9962 55.9541 45.7968 55.4791C47.5974 55.0041 49.2 54.2722 50.6049 53.2829C52.0096 52.2936 53.1277 51.0171 53.9586 49.4542C54.7899 47.8909 55.2052 46.0409 55.2052 43.9039C55.2052 41.2524 54.5621 38.987 53.2761 37.1074C51.9899 35.2275 50.0408 33.9117 47.4289 33.1598C49.3285 32.2498 50.7632 31.0822 51.7328 29.6576C52.7022 28.233 53.187 26.4523 53.187 24.3152C53.187 22.3366 52.8605 20.6746 52.2075 19.329C51.5546 17.9837 50.6344 16.9053 49.4472 16.094C48.2602 15.2827 46.8356 14.6989 45.1733 14.3429C43.5114 13.9866 41.6711 13.8086 39.6529 13.8086H19.708ZM29.0276 48.9494V37.3149H39.1779C41.1962 37.3149 42.8188 37.7798 44.0457 38.71C45.2723 39.64 45.8859 41.1931 45.8859 43.3696C45.8859 44.4779 45.6978 45.3879 45.3218 46.1002C44.9458 46.8125 44.4413 47.3766 43.8081 47.792C43.175 48.2076 42.4428 48.5043 41.6118 48.6825C40.7805 48.8603 39.9102 48.9494 38.9999 48.9494H29.0276Z" fill="#030113"/>
<defs>
<linearGradient id="paint0_linear" x1="35" y1="0" x2="35" y2="70" gradientUnits="userSpaceOnUse">
<stop stop-color="#D090E0"/>
<stop offset="1" stop-color="#7F7FF7"/>
</linearGradient>
</defs>
</svg>
