<svg width="40" height="40" viewBox="0 0 40 40" fill="none" xmlns="http://www.w3.org/2000/svg">
<path d="M32.4538 38.7054L20 26.2513L7.5462 38.7054C5.81979 40.4315 3.02098 40.4315 1.29458 38.7054C-0.431525 36.979 -0.431525 34.1802 1.29458 32.4538L13.7487 20L1.29458 7.5462C-0.431525 5.81979 -0.431525 3.02098 1.29458 1.29458C3.02098 -0.431525 5.81979 -0.431525 7.5462 1.29458L20 13.7487L32.4538 1.29458C34.1802 -0.431525 36.979 -0.431525 38.7054 1.29458C40.4315 3.02098 40.4315 5.81979 38.7054 7.5462L26.2513 20L38.7054 32.4538C40.4315 34.1802 40.4315 36.979 38.7054 38.7054C36.979 40.4315 34.1802 40.4315 32.4538 38.7054Z" fill="#DA3D3D"/>
</svg>
