<svg width="299" height="47" viewBox="0 0 299 47" fill="none" xmlns="http://www.w3.org/2000/svg">
<path d="M18.85 36.7C13.5833 36.7 9.23333 34.95 5.8 31.45C2.36667 27.95 0.65 23.6333 0.65 18.5C0.65 13.3333 2.36667 9.01667 5.8 5.55C9.23333 2.05 13.5833 0.299998 18.85 0.299998C22.0167 0.299998 24.9333 1.05 27.6 2.55C30.3 4.01667 32.4 6.01667 33.9 8.55L27.95 12C27.0833 10.4333 25.85 9.21667 24.25 8.35C22.65 7.45 20.85 7 18.85 7C15.45 7 12.7 8.06666 10.6 10.2C8.53333 12.3333 7.5 15.1 7.5 18.5C7.5 21.8667 8.53333 24.6167 10.6 26.75C12.7 28.8833 15.45 29.95 18.85 29.95C20.85 29.95 22.65 29.5167 24.25 28.65C25.8833 27.75 27.1167 26.5333 27.95 25L33.9 28.45C32.4 30.9833 30.3167 33 27.65 34.5C24.9833 35.9667 22.05 36.7 18.85 36.7ZM46.6422 36L34.8922 0.999998H42.3922L50.9422 27.9L59.4422 0.999998H66.9922L55.1922 36H46.6422ZM94.8152 36.7C91.3486 36.7 88.4319 35.9333 86.0652 34.4C83.6986 32.8333 82.0319 30.7167 81.0652 28.05L86.9652 24.6C88.3319 28.1667 91.0152 29.95 95.0152 29.95C96.9486 29.95 98.3652 29.6 99.2652 28.9C100.165 28.2 100.615 27.3167 100.615 26.25C100.615 25.0167 100.065 24.0667 98.9652 23.4C97.8652 22.7 95.8986 21.95 93.0652 21.15C91.4986 20.6833 90.1652 20.2167 89.0652 19.75C87.9986 19.2833 86.9152 18.6667 85.8152 17.9C84.7486 17.1 83.9319 16.1 83.3652 14.9C82.7986 13.7 82.5152 12.3 82.5152 10.7C82.5152 7.53333 83.6319 5.01667 85.8652 3.15C88.1319 1.25 90.8486 0.299998 94.0152 0.299998C96.8486 0.299998 99.3319 0.999998 101.465 2.4C103.632 3.76666 105.315 5.68333 106.515 8.15L100.715 11.5C99.3152 8.5 97.0819 7 94.0152 7C92.5819 7 91.4486 7.33333 90.6152 8C89.8152 8.63333 89.4152 9.46667 89.4152 10.5C89.4152 11.6 89.8652 12.5 90.7652 13.2C91.6986 13.8667 93.4652 14.6 96.0652 15.4C97.1319 15.7333 97.9319 16 98.4652 16.2C99.0319 16.3667 99.7819 16.65 100.715 17.05C101.682 17.4167 102.415 17.7667 102.915 18.1C103.449 18.4333 104.049 18.8833 104.715 19.45C105.382 20.0167 105.882 20.6 106.215 21.2C106.582 21.8 106.882 22.5333 107.115 23.4C107.382 24.2333 107.515 25.15 107.515 26.15C107.515 29.3833 106.332 31.95 103.965 33.85C101.632 35.75 98.5819 36.7 94.8152 36.7ZM128.216 11H134.666V36H128.216V33.2C126.649 35.5333 124.166 36.7 120.766 36.7C118.032 36.7 115.766 35.7833 113.966 33.95C112.199 32.1167 111.316 29.5833 111.316 26.35V11H117.766V25.55C117.766 27.2167 118.216 28.5 119.116 29.4C120.016 30.2667 121.216 30.7 122.716 30.7C124.382 30.7 125.716 30.1833 126.716 29.15C127.716 28.1167 128.216 26.5667 128.216 24.5V11ZM168.223 10.3C171.09 10.3 173.373 11.2333 175.073 13.1C176.806 14.9667 177.673 17.4667 177.673 20.6V36H171.223V21.05C171.223 19.55 170.856 18.3833 170.123 17.55C169.39 16.7167 168.356 16.3 167.023 16.3C165.556 16.3 164.406 16.7833 163.573 17.75C162.773 18.7167 162.373 20.1167 162.373 21.95V36H155.923V21.05C155.923 19.55 155.556 18.3833 154.823 17.55C154.09 16.7167 153.056 16.3 151.723 16.3C150.29 16.3 149.14 16.7833 148.273 17.75C147.44 18.7167 147.023 20.1167 147.023 21.95V36H140.573V11H147.023V13.65C148.523 11.4167 150.84 10.3 153.973 10.3C157.04 10.3 159.306 11.5 160.773 13.9C162.44 11.5 164.923 10.3 168.223 10.3ZM210.801 10.3C213.668 10.3 215.951 11.2333 217.651 13.1C219.385 14.9667 220.251 17.4667 220.251 20.6V36H213.801V21.05C213.801 19.55 213.435 18.3833 212.701 17.55C211.968 16.7167 210.935 16.3 209.601 16.3C208.135 16.3 206.985 16.7833 206.151 17.75C205.351 18.7167 204.951 20.1167 204.951 21.95V36H198.501V21.05C198.501 19.55 198.135 18.3833 197.401 17.55C196.668 16.7167 195.635 16.3 194.301 16.3C192.868 16.3 191.718 16.7833 190.851 17.75C190.018 18.7167 189.601 20.1167 189.601 21.95V36H183.151V11H189.601V13.65C191.101 11.4167 193.418 10.3 196.551 10.3C199.618 10.3 201.885 11.5 203.351 13.9C205.018 11.5 207.501 10.3 210.801 10.3ZM244.729 11H251.179V36H244.729V33.05C242.796 35.4833 240.079 36.7 236.579 36.7C233.246 36.7 230.379 35.4333 227.979 32.9C225.613 30.3333 224.429 27.2 224.429 23.5C224.429 19.8 225.613 16.6833 227.979 14.15C230.379 11.5833 233.246 10.3 236.579 10.3C240.079 10.3 242.796 11.5167 244.729 13.95V11ZM232.829 28.6C234.129 29.9 235.779 30.55 237.779 30.55C239.779 30.55 241.429 29.9 242.729 28.6C244.063 27.2667 244.729 25.5667 244.729 23.5C244.729 21.4333 244.063 19.75 242.729 18.45C241.429 17.1167 239.779 16.45 237.779 16.45C235.779 16.45 234.129 17.1167 232.829 18.45C231.529 19.75 230.879 21.4333 230.879 23.5C230.879 25.5667 231.529 27.2667 232.829 28.6ZM263.478 15.3C264.078 13.7 265.061 12.5 266.428 11.7C267.828 10.9 269.378 10.5 271.078 10.5V17.7C269.111 17.4667 267.345 17.8667 265.778 18.9C264.245 19.9333 263.478 21.65 263.478 24.05V36H257.028V11H263.478V15.3ZM291.688 11H298.588L289.488 36C288.188 39.6 286.454 42.2 284.288 43.8C282.154 45.4333 279.488 46.1667 276.288 46V40C278.021 40.0333 279.388 39.6667 280.388 38.9C281.421 38.1333 282.238 36.9 282.838 35.2L272.588 11H279.638L286.138 27.8L291.688 11Z" fill="url(#paint0_linear)"/>
<defs>
<linearGradient id="paint0_linear" x1="149" y1="-9" x2="149" y2="53" gradientUnits="userSpaceOnUse">
<stop offset="0.225229" stop-color="#D090E0"/>
<stop offset="0.522116" stop-color="#7F7FF7"/>
<stop offset="0.881506" stop-color="#D090E0"/>
</linearGradient>
</defs>
</svg>
