<svg width="177" height="36" viewBox="0 0 177 36" fill="none" xmlns="http://www.w3.org/2000/svg">
<path d="M19.45 35L12.4 22.85H7.15V35H0.25V-2.38419e-06H14.25C17.4833 -2.38419e-06 20.2333 1.13333 22.5 3.4C24.7667 5.66667 25.9 8.4 25.9 11.6C25.9 13.7667 25.2833 15.7833 24.05 17.65C22.8167 19.4833 21.1833 20.8667 19.15 21.8L26.9 35H19.45ZM7.15 6.45V16.8H14.25C15.55 16.8 16.6667 16.3 17.6 15.3C18.5333 14.2667 19 13.0333 19 11.6C19 10.1667 18.5333 8.95 17.6 7.95C16.6667 6.95 15.55 6.45 14.25 6.45H7.15ZM34.8434 25.15C35.71 28.2833 38.06 29.85 41.8934 29.85C44.36 29.85 46.2267 29.0167 47.4934 27.35L52.6934 30.35C50.2267 33.9167 46.5934 35.7 41.7934 35.7C37.66 35.7 34.3434 34.45 31.8434 31.95C29.3434 29.45 28.0934 26.3 28.0934 22.5C28.0934 18.7333 29.3267 15.6 31.7934 13.1C34.26 10.5667 37.4267 9.3 41.2934 9.3C44.96 9.3 47.9767 10.5667 50.3434 13.1C52.7434 15.6333 53.9434 18.7667 53.9434 22.5C53.9434 23.3333 53.86 24.2167 53.6934 25.15H34.8434ZM34.7434 20.15H47.4934C47.1267 18.45 46.36 17.1833 45.1934 16.35C44.06 15.5167 42.76 15.1 41.2934 15.1C39.56 15.1 38.1267 15.55 36.9934 16.45C35.86 17.3167 35.11 18.55 34.7434 20.15ZM63.4195 17.1C63.4195 17.7667 63.8529 18.3167 64.7195 18.75C65.6195 19.15 66.7029 19.5167 67.9695 19.85C69.2362 20.15 70.5029 20.55 71.7695 21.05C73.0362 21.5167 74.1029 22.3167 74.9695 23.45C75.8695 24.5833 76.3195 26 76.3195 27.7C76.3195 30.2667 75.3529 32.25 73.4195 33.65C71.5195 35.0167 69.1362 35.7 66.2695 35.7C61.1362 35.7 57.6362 33.7167 55.7695 29.75L61.3695 26.6C62.1029 28.7667 63.7362 29.85 66.2695 29.85C68.5695 29.85 69.7195 29.1333 69.7195 27.7C69.7195 27.0333 69.2695 26.5 68.3695 26.1C67.5029 25.6667 66.4362 25.2833 65.1695 24.95C63.9029 24.6167 62.6362 24.2 61.3695 23.7C60.1029 23.2 59.0195 22.4167 58.1195 21.35C57.2529 20.25 56.8195 18.8833 56.8195 17.25C56.8195 14.7833 57.7195 12.85 59.5195 11.45C61.3529 10.0167 63.6195 9.3 66.3195 9.3C68.3529 9.3 70.2029 9.76667 71.8695 10.7C73.5362 11.6 74.8529 12.9 75.8195 14.6L70.3195 17.6C69.5195 15.9 68.1862 15.05 66.3195 15.05C65.4862 15.05 64.7862 15.2333 64.2195 15.6C63.6862 15.9667 63.4195 16.4667 63.4195 17.1ZM96.9676 10H103.418V35H96.9676V32.2C95.4009 34.5333 92.9176 35.7 89.5176 35.7C86.7842 35.7 84.5176 34.7833 82.7176 32.95C80.9509 31.1167 80.0676 28.5833 80.0676 25.35V10H86.5176V24.55C86.5176 26.2167 86.9676 27.5 87.8676 28.4C88.7676 29.2667 89.9676 29.7 91.4676 29.7C93.1342 29.7 94.4676 29.1833 95.4676 28.15C96.4676 27.1167 96.9676 25.5667 96.9676 23.5V10ZM136.975 9.3C139.842 9.3 142.125 10.2333 143.825 12.1C145.558 13.9667 146.425 16.4667 146.425 19.6V35H139.975V20.05C139.975 18.55 139.608 17.3833 138.875 16.55C138.142 15.7167 137.108 15.3 135.775 15.3C134.308 15.3 133.158 15.7833 132.325 16.75C131.525 17.7167 131.125 19.1167 131.125 20.95V35H124.675V20.05C124.675 18.55 124.308 17.3833 123.575 16.55C122.842 15.7167 121.808 15.3 120.475 15.3C119.042 15.3 117.892 15.7833 117.025 16.75C116.192 17.7167 115.775 19.1167 115.775 20.95V35H109.325V10H115.775V12.65C117.275 10.4167 119.592 9.3 122.725 9.3C125.792 9.3 128.058 10.5 129.525 12.9C131.192 10.5 133.675 9.3 136.975 9.3ZM157.353 25.15C158.22 28.2833 160.57 29.85 164.403 29.85C166.87 29.85 168.736 29.0167 170.003 27.35L175.203 30.35C172.736 33.9167 169.103 35.7 164.303 35.7C160.17 35.7 156.853 34.45 154.353 31.95C151.853 29.45 150.603 26.3 150.603 22.5C150.603 18.7333 151.836 15.6 154.303 13.1C156.77 10.5667 159.936 9.3 163.803 9.3C167.47 9.3 170.486 10.5667 172.853 13.1C175.253 15.6333 176.453 18.7667 176.453 22.5C176.453 23.3333 176.37 24.2167 176.203 25.15H157.353ZM157.253 20.15H170.003C169.636 18.45 168.87 17.1833 167.703 16.35C166.57 15.5167 165.27 15.1 163.803 15.1C162.07 15.1 160.636 15.55 159.503 16.45C158.37 17.3167 157.62 18.55 157.253 20.15Z" fill="url(#paint0_linear)"/>
<defs>
<linearGradient id="paint0_linear" x1="88" y1="-10" x2="88" y2="52" gradientUnits="userSpaceOnUse">
<stop offset="0.225229" stop-color="#D090E0"/>
<stop offset="0.522116" stop-color="#7F7FF7"/>
<stop offset="0.881506" stop-color="#D090E0"/>
</linearGradient>
</defs>
</svg>
