<svg width="70" height="70" viewBox="0 0 70 70" fill="none" xmlns="http://www.w3.org/2000/svg">
<path d="M70 35.1367C70 51.543 58.5017 65.2832 43.2031 68.9746L39.0193 55.6857H30.9807L26.9336 68.9746C11.635 65.2832 0 51.543 0 35.1367C0 15.9005 15.7638 0 35 0C54.2362 0 70 15.9005 70 35.1367Z" fill="url(#paint0_linear)"/>
<path d="M70 35.1367C70 51.543 58.5017 65.2832 43.2031 68.9746L39.0193 55.6857H35V0C54.2362 0 70 15.9005 70 35.1367Z" fill="url(#paint1_linear)"/>
<path d="M24.784 58.7969C23.953 58.7969 23.1418 58.6784 22.3466 58.4444C20.2782 57.8335 18.5975 56.4556 17.3499 54.3546C16.7812 53.3955 16.1884 52.7305 15.4898 52.2616C14.8025 51.7992 14.254 51.6229 13.6751 51.6651L13.3146 47.5796C14.8345 47.4492 16.2888 47.8615 17.7708 48.8533C18.9783 49.6602 19.9935 50.7759 20.8768 52.2595C21.6021 53.4793 22.4368 54.1944 23.5087 54.5111C24.7124 54.8652 25.9616 54.7172 27.56 54.0363L29.1745 57.8052C27.63 58.4663 26.1763 58.7969 24.784 58.7969Z" fill="#030113"/>
<path d="M54.8108 39.2793C53.3748 43.0935 49.7656 47.9337 40.6193 49.287C41.8087 51.0505 43.2442 51.9941 43.2031 55.6855V68.9745C40.5782 69.6309 37.8299 69.9999 35 69.9999C32.17 69.9999 29.5585 69.6309 26.9336 68.9745V55.5211C26.9336 51.8708 28.3146 50.8454 29.3806 49.287C20.2343 47.9332 16.6252 43.0935 15.1891 39.2793C13.2617 34.1929 14.2871 27.8766 17.6506 23.8573C17.7323 23.7751 17.8557 23.57 17.8145 23.4472C16.2556 18.7715 18.1424 14.875 18.2247 14.4648C19.9881 14.9978 20.2755 13.9313 25.9765 17.4176L26.9608 17.9923C27.371 18.238 27.2481 18.074 27.6583 18.074C30.037 17.4176 32.539 17.0486 35 17.0486C37.502 17.0486 39.963 17.4176 42.4645 18.074L42.7518 18.1151C42.7518 18.1151 42.8335 18.1151 43.0391 17.9923C50.1346 13.6851 49.8884 15.0801 51.8158 14.4648C51.857 14.875 53.7438 18.8121 52.1854 23.4472C51.9803 24.0624 58.3378 29.8863 54.8108 39.2793Z" fill="#030113"/>
<path d="M54.8109 39.2793C53.3748 43.0935 49.7656 47.9337 40.6194 49.287C41.8087 51.0505 43.2443 51.9941 43.2031 55.6855V68.9745C40.5782 69.6309 37.83 69.9999 35 69.9999V17.0486C37.5021 17.0486 39.963 17.4176 42.4651 18.074L42.7519 18.1151C42.7519 18.1151 42.8341 18.1151 43.0392 17.9923C50.1347 13.6851 49.8885 15.0801 51.8164 14.4648C51.8575 14.875 53.7444 18.8121 52.1855 23.4472C51.9804 24.0624 58.3378 29.8863 54.8109 39.2793Z" fill="#030113"/>
<defs>
<linearGradient id="paint0_linear" x1="35" y1="0" x2="35" y2="68.9746" gradientUnits="userSpaceOnUse">
<stop stop-color="#D090E0"/>
<stop offset="1" stop-color="#7F7FF7"/>
</linearGradient>
<linearGradient id="paint1_linear" x1="52.5" y1="0" x2="52.5" y2="68.9746" gradientUnits="userSpaceOnUse">
<stop stop-color="#D090E0"/>
<stop offset="1" stop-color="#7F7FF7"/>
</linearGradient>
</defs>
</svg>
