<svg width="30" height="30" viewBox="0 0 30 30" fill="none" xmlns="http://www.w3.org/2000/svg">
<g clip-path="url(#clip0)">
<path d="M29.477 17.9397L20.4135 27.4257C18.7831 29.0562 16.572 29.9719 14.2668 29.9719H12.5555C8.15525 29.9719 4.58756 26.4045 4.58756 22.004C4.58756 19.8834 4.02921 17.8009 2.96923 15.9646L0.258939 11.2702C-0.155996 10.5517 -0.0578456 9.67175 0.450289 9.06516C1.30316 8.04473 2.92831 8.16823 3.60485 9.33861C7.54915 16.1705 2.98167 8.25896 7.46446 16.0238C4.37599 4.49781 4.38939 4.8359 4.49823 4.21078C4.49823 4.14812 4.577 3.83593 4.68595 3.61802C5.57546 1.79089 8.2266 2.07725 8.74234 4.00011C8.90333 4.60109 11.4344 14.0481 11.5897 14.6276C11.5897 1.46535 11.5801 2.13086 11.6072 1.92846C11.7577 0.800397 12.7419 0.0348742 13.6511 0.0348742C14.91 -0.0265149 15.9358 0.974061 15.9358 2.20492V15.0019C19.5689 2.32927 19.2674 3.21787 19.5358 2.80855C20.1011 1.91288 21.3796 1.53701 22.3988 2.10834C23.2071 2.5141 23.718 3.55596 23.4461 4.57235L20.2819 16.3805V18.9478C20.2819 19.8086 21.322 20.2395 21.9304 19.6311C24.8518 16.2491 24.5907 16.5426 24.7307 16.4119C26.2423 15.011 28.2979 14.805 28.9778 15.1449C30.0521 15.6068 30.3782 17.0385 29.477 17.9397Z" fill="#BB7134"/>
<path d="M29.8831 16.0878L19.5237 26.8403C18.2216 27.9853 16.6106 28.7127 14.8999 28.9336C9.50789 29.6346 5.55328 25.6399 5.55328 21.0382C5.55328 18.9176 4.99492 16.8351 3.93495 14.9989C0.278765 8.78076 0.491001 9.14529 0.450195 9.06519C0.925433 8.49663 1.69904 8.23743 2.44459 8.44224C2.86332 8.55717 3.10321 8.74834 3.37538 9.02052C5.42675 12.4564 7.4704 16.0238 7.46437 16.0238C7.9821 16.0238 8.35894 15.5327 8.22494 15.0326C5.3414 4.27147 5.4774 4.94029 5.49714 4.4758C5.51374 3.79623 5.91093 3.07254 6.55892 2.69449C6.8308 2.53483 7.13237 2.45147 7.15712 2.45123C7.9032 2.63292 8.52917 3.20636 8.74225 4.00014C9.02607 5.05957 11.2827 13.4824 11.5896 14.6276C11.5896 0.998169 11.575 2.10547 11.6234 1.82043C11.682 1.49417 11.8191 1.18711 11.9765 0.966901C12.1634 0.694242 12.4147 0.495467 12.4208 0.495467C13.894 -0.640744 15.9357 0.436673 15.9357 2.20494V15.0019C19.4602 2.70789 19.2712 3.35462 19.3039 3.26975C19.8186 1.80323 21.7833 1.28978 22.9517 2.54479C23.026 2.62887 23.285 1.51645 19.316 16.5617V19.1289C19.316 19.8675 20.1403 20.5806 21.0925 20.21C21.7322 19.9608 22.0907 19.4455 22.581 18.8778C24.7875 16.3239 24.5238 16.6243 24.677 16.4631C25.3195 15.8417 26.1574 15.3586 27.1179 15.1365C27.5225 15.0439 28.162 14.962 28.5534 15.0218C29.0847 15.1037 29.5227 15.4248 29.7709 15.8548C29.8395 15.9697 29.8803 16.0818 29.8831 16.0878Z" fill="#DB9658"/>
<path d="M13.5212 27.497C13.2545 27.497 13.0383 27.2808 13.0383 27.0141C13.0383 23.1567 15.9173 19.8644 19.7352 19.3558C20.0004 19.3211 20.2425 19.5064 20.2776 19.7707C20.3128 20.0351 20.127 20.278 19.8627 20.3131C16.5228 20.758 14.0041 23.6388 14.0041 27.0141C14.0041 27.2808 13.7879 27.497 13.5212 27.497Z" fill="#BB7134"/>
</g>
<defs>
<clipPath id="clip0">
<rect width="30" height="30" fill="white"/>
</clipPath>
</defs>
</svg>
