<svg width="70" height="70" viewBox="0 0 70 70" fill="none" xmlns="http://www.w3.org/2000/svg">
<path d="M0 0H70V70H0V0Z" fill="url(#paint0_linear)"/>
<path d="M18.4057 58.497L23.7623 55.2551C24.7959 57.0874 25.736 58.6378 27.991 58.6378C30.1525 58.6378 31.5156 57.7924 31.5156 54.5034V32.1368H38.0937V54.5964C38.0937 61.4097 34.0999 64.511 28.2729 64.511C23.0106 64.511 19.9561 61.7856 18.4054 58.4965L18.4057 58.497ZM41.6667 57.7921L47.0228 54.691C48.4329 56.9936 50.2655 58.6851 53.5074 58.6851C56.2333 58.6851 57.9712 57.3223 57.9712 55.4427C57.9712 53.1874 56.1857 52.3884 53.1784 51.0732L51.5343 50.3677C46.7882 48.3478 43.6401 45.8103 43.6401 40.4537C43.6401 35.5198 47.3991 31.7606 53.2728 31.7606C57.4547 31.7606 60.462 33.2174 62.6232 37.0234L57.5012 40.3129C56.3733 38.2924 55.1521 37.4937 53.2725 37.4937C51.3459 37.4937 50.1241 38.7154 50.1241 40.3129C50.1241 42.2863 51.3459 43.0855 54.165 44.3072L55.8095 45.0119C61.4012 47.4086 64.5493 49.8517 64.5493 55.3489C64.5493 61.2699 59.8976 64.5118 53.6482 64.5118C47.5399 64.5118 43.5928 61.5986 41.6665 57.7924" fill="#030113"/>
<defs>
<linearGradient id="paint0_linear" x1="35" y1="0" x2="35" y2="70" gradientUnits="userSpaceOnUse">
<stop stop-color="#D090E0"/>
<stop offset="1" stop-color="#7F7FF7"/>
</linearGradient>
</defs>
</svg>
