<svg width="70" height="70" viewBox="0 0 70 70" fill="none" xmlns="http://www.w3.org/2000/svg">
<circle cx="35" cy="35" r="35" fill="url(#paint0_linear)"/>
<path d="M39.4247 15.0081C39.3288 15.0223 39.2329 15.0507 39.1406 15.0933C38.3592 15.4804 37.4712 16.6309 37.3008 16.8582C37.2901 16.8724 37.2795 16.8866 37.2723 16.9008C36.3951 18.2147 35.9262 19.7523 35.9085 21.3538C35.8978 22.5541 36.1322 23.7437 36.6082 24.8907C37.7163 27.5504 40.0179 29.7521 42.7563 30.7819C42.8486 30.8138 42.9374 30.8458 43.0972 30.9026C43.1114 30.9097 43.2464 30.9523 43.2677 30.9559L43.3672 30.9914C43.5092 31.0375 43.6548 31.0837 43.7969 31.1121C44.5179 31.2577 45.2212 31.3394 45.8818 31.3607C45.9954 31.3607 46.1091 31.3642 46.2228 31.3642C51.2059 31.3642 53.138 27.8487 53.7809 26.6768C53.8448 26.5632 53.891 26.4709 53.9336 26.4141C53.9336 26.4105 53.9336 26.4105 53.9372 26.407C54.2178 25.9915 54.1112 25.4269 53.6956 25.1428C53.2836 24.8623 52.7189 24.9688 52.4348 25.3843H52.4312C51.1029 27.3409 48.8297 27.9339 45.6793 27.1527C45.4449 27.0959 45.1892 27.0071 44.9619 26.9219C44.6635 26.8153 44.3652 26.691 44.0882 26.5561C43.5376 26.2827 43.0191 25.956 42.5503 25.5938C39.7799 23.4454 38.6966 18.9746 40.3162 16.393C40.5329 16.0486 40.4938 15.6011 40.2203 15.2993C40.0143 15.072 39.716 14.969 39.4247 15.0081ZM31.3693 16.8191C31.1633 16.8156 30.9538 16.8831 30.7833 17.0251C29.4088 18.1437 28.0023 19.976 27.9419 20.0506C27.9348 20.0648 27.9277 20.0754 27.917 20.0897C25.4308 23.7082 25.2426 28.8572 27.4411 33.2072C27.7856 33.8961 28.1763 34.5531 28.5919 35.1567L28.7162 35.3343C29.0678 35.8492 29.462 36.4316 29.9664 36.8861C30.1404 37.085 30.3287 37.2767 30.5134 37.4614L30.6022 37.5537L30.6767 37.6283C30.865 37.8094 31.0568 37.994 31.2557 38.1716H31.2592C31.2734 38.1929 31.2947 38.2071 31.3125 38.2248C31.5363 38.4237 31.7636 38.6119 32.0655 38.8498L32.1472 38.9102C32.3816 39.0984 32.6196 39.276 32.8646 39.45C32.8895 39.4677 32.9143 39.4855 32.9392 39.5032C33.0245 39.56 33.1097 39.6133 33.1949 39.6737L33.2802 39.7305L33.3796 39.7944C33.5608 39.9151 33.7384 40.0252 33.9905 40.1708C34.1539 40.2703 34.3279 40.3697 34.4416 40.4265C34.4913 40.4549 34.5446 40.4833 34.6689 40.5508L34.9459 40.6964C34.9602 40.7035 35.0241 40.7319 35.0383 40.739C35.2194 40.8313 35.4077 40.9201 35.5959 41.0053L35.8836 41.1332C36.0719 41.2148 36.2636 41.293 36.4981 41.3817L36.6046 41.4208C36.6117 41.4279 36.7005 41.4599 36.7076 41.4634C36.8781 41.5238 37.0521 41.5841 37.2262 41.641L37.624 41.7723C37.8229 41.8398 38.0537 41.9179 38.3059 41.9606C39.5455 42.1665 40.7495 42.273 41.8896 42.273C42.0246 42.273 42.1596 42.2695 42.291 42.2695C52.3282 42.0493 54.9388 33.5233 54.9636 33.438C55.0879 33.0084 54.8855 32.5503 54.4806 32.3585C54.0757 32.1668 53.5926 32.3017 53.3405 32.671C50.7974 36.3854 45.9883 37.955 41.0905 36.6624C40.8632 36.6056 40.643 36.5417 40.3695 36.4529C40.3233 36.4387 40.2842 36.4245 40.2096 36.3961C40.0498 36.3463 39.8935 36.2931 39.716 36.2256L39.4638 36.1297C39.3182 36.0729 39.1725 36.0161 38.9949 35.938L38.8777 35.8847C38.6611 35.7924 38.4515 35.6894 38.2633 35.5971L37.7447 35.3272C37.6275 35.2704 37.5245 35.2065 37.3647 35.1106L37.2759 35.0609L37.1871 35.0076C37.0557 34.9295 36.9243 34.8478 36.8035 34.7626L36.7183 34.7093C36.7112 34.7058 36.6401 34.656 36.633 34.6489C36.5265 34.5815 36.4235 34.514 36.324 34.4501C36.1038 34.2938 35.8872 34.1305 35.635 33.9316L35.5355 33.85C33.1914 31.9786 31.4581 29.4786 30.6448 26.7976C29.8883 24.3367 30.4494 21.1159 32.1472 18.1827C32.3674 17.8028 32.2857 17.3198 31.9483 17.0358C31.7813 16.8937 31.5753 16.8191 31.3693 16.8191ZM21.3641 19.5463C21.1474 19.5463 20.9272 19.6245 20.7531 19.7807C19.0163 21.3396 17.7164 23.3602 17.5743 23.591C13.8592 28.9992 14.5767 37.4046 17.1268 42.5429C17.1765 42.6495 17.2298 42.7524 17.2831 42.8554L17.3186 42.9122C17.3648 43.0152 17.4181 43.1217 17.4358 43.1431C17.4642 43.2105 17.5068 43.2851 17.5246 43.3064C17.5672 43.3952 17.6098 43.4733 17.688 43.6082L17.9792 44.1089C18.0219 44.1764 18.0645 44.2474 18.0787 44.2723C18.1355 44.3646 18.1959 44.4605 18.2563 44.5564L18.3983 44.7836C18.441 44.8511 18.4836 44.9115 18.512 44.947C18.6541 45.1671 18.7961 45.3873 18.9524 45.5968C18.9595 45.6075 18.9666 45.6146 18.9737 45.6217L19.0305 45.6998C19.1584 45.8845 19.2898 46.062 19.407 46.2076L19.9256 46.8645C19.9327 46.8717 19.9895 46.9391 19.9931 46.9462L20.0677 47.0314C20.2239 47.2232 20.3909 47.415 20.5578 47.5996C20.5827 47.628 20.6075 47.6529 20.6324 47.6813C20.7922 47.8553 20.9556 48.0293 21.1261 48.2104L21.2895 48.3666C21.4244 48.5087 21.5594 48.6472 21.7015 48.7786C21.7015 48.7821 21.7689 48.846 21.7689 48.846L21.911 48.9774C22.0815 49.1408 22.2591 49.3041 22.3941 49.4178C22.4012 49.4284 22.529 49.5385 22.5397 49.5456C22.7066 49.6947 22.8735 49.8368 23.044 49.9753L23.9142 50.6642C24.0598 50.7707 24.209 50.8772 24.3795 51.0015C24.4363 51.0441 24.4967 51.0867 24.5571 51.1258C24.5819 51.1471 24.6104 51.1684 24.6281 51.1791L25.2816 51.6159C25.5196 51.7721 25.7576 51.9177 26.0488 52.0917L26.2051 52.1805C26.3862 52.287 26.5709 52.3935 26.745 52.4859C26.848 52.5427 26.951 52.5924 27.0397 52.6386C27.1641 52.706 27.299 52.7806 27.505 52.88C27.5228 52.8907 27.6684 52.9617 27.6862 52.9688C27.8922 53.0718 28.1017 53.1677 28.3646 53.2848C28.3646 53.2884 28.4498 53.3275 28.4498 53.3275C28.6913 53.4304 28.9257 53.5299 29.2347 53.6542C29.2845 53.6755 29.3342 53.6932 29.3448 53.6968C29.565 53.782 29.7959 53.8672 29.9842 53.9347C30.0019 53.9418 30.0978 53.9808 30.1156 53.9879C30.3677 54.0732 30.6164 54.1549 30.936 54.2543C30.9893 54.272 31.0461 54.2898 31.0532 54.2898L31.2344 54.3466C31.4546 54.4141 31.6748 54.4851 31.9128 54.5313C33.6034 54.8402 35.255 55 36.8177 55H36.8213C49.8456 55 53.994 44.5209 54.0366 44.4143C54.1964 43.9918 54.0224 43.5159 53.6246 43.2957C53.2339 43.0791 52.7367 43.1821 52.4596 43.5408C49.1174 47.9405 42.8131 49.574 35.5959 47.9157C35.4219 47.873 35.2443 47.8233 35.0703 47.7701L34.7293 47.6671C34.4984 47.5961 34.2676 47.5179 34.0438 47.4398C34.0403 47.4398 33.9373 47.4008 33.9373 47.4008C33.7384 47.3333 33.5395 47.2552 33.3654 47.1877L33.1665 47.1096C32.9463 47.0208 32.7261 46.9285 32.513 46.8326L32.3887 46.7793C32.1969 46.6905 32.0122 46.6053 31.8275 46.513C31.8133 46.5059 31.6677 46.4349 31.6535 46.4313C31.5256 46.3674 31.3978 46.2999 31.2344 46.2112L30.4921 45.8134C30.4175 45.7637 30.3393 45.7176 30.2647 45.6785C30.041 45.54 29.8101 45.4015 29.5828 45.2559C29.5295 45.224 29.4834 45.1885 29.3946 45.1281C29.2383 45.0287 29.0856 44.9257 28.8618 44.7694L28.773 44.7055C28.6203 44.599 28.4711 44.4853 28.3468 44.393C28.2687 44.3362 28.1905 44.2723 28.0627 44.1764C27.949 44.0876 27.8353 44.0024 27.7288 43.9172L27.5299 43.7538C27.363 43.6189 27.2067 43.4768 27.0433 43.3384C27.022 43.3171 27.0042 43.3028 26.9794 43.2851C26.7982 43.1182 26.6135 42.9513 26.3933 42.7418L25.7505 42.1026C25.5942 41.9428 25.4379 41.7794 25.2603 41.5841C25.0969 41.403 24.9407 41.2219 24.7311 40.9734L24.3475 40.5046C24.3013 40.4372 24.2516 40.3697 24.1912 40.2987C24.0598 40.1211 23.9284 39.9471 23.797 39.7625C20.2595 34.8904 19.336 24.7202 22.0922 20.9952C22.3692 20.6223 22.3195 20.0968 21.9714 19.7807C21.8009 19.6245 21.5807 19.5463 21.3641 19.5463Z" fill="#030113"/>
<defs>
<linearGradient id="paint0_linear" x1="35" y1="0" x2="35" y2="70" gradientUnits="userSpaceOnUse">
<stop stop-color="#D090E0"/>
<stop offset="1" stop-color="#7F7FF7"/>
</linearGradient>
</defs>
</svg>
