<svg width="60" height="60" viewBox="0 0 60 60" fill="none" xmlns="http://www.w3.org/2000/svg">
<path d="M3.04688 20.67H56.9531V39.33H3.04688V20.67Z" fill="#FB4A59"/>
<path d="M27.2485 33.4421V35.1521H20.094V24.848H21.954V33.4421H27.2485Z" fill="#F2F2F2"/>
<path d="M28.7941 24.848H30.6559V35.1521H28.7941V24.848Z" fill="#F2F2F2"/>
<path d="M42.7431 24.848L38.4372 35.1521H36.3536L32.0486 24.848H34.1186L37.3886 32.6625L40.6586 24.848H42.7431Z" fill="#F2F2F2"/>
<path d="M45.9841 26.558V29.048H51.3087V30.7576H45.9841V33.4426H51.8637V35.1526H44.1091V24.848H51.8637V26.558H45.9841Z" fill="#F2F2F2"/>
<path d="M11.3398 32.8125C12.8931 32.8125 14.1523 31.5533 14.1523 30C14.1523 28.4467 12.8931 27.1875 11.3398 27.1875C9.78654 27.1875 8.52734 28.4467 8.52734 30C8.52734 31.5533 9.78654 32.8125 11.3398 32.8125Z" fill="#F2F2F2"/>
</svg>
