<svg width="70" height="70" viewBox="0 0 70 70" fill="none" xmlns="http://www.w3.org/2000/svg">
<path d="M50.8757 15.2829V32.5486C50.8757 36.6129 47.5815 39.9073 43.5171 39.9073H25.8299C20.7171 39.9073 16.5728 44.053 16.5728 49.1659V57.6458H10.7899C9.74278 57.6458 8.73708 57.4387 7.79563 57.0216C4.97854 53.5473 2.81565 49.523 1.48989 45.1344C1.38558 44.0516 1.3313 42.8958 1.3313 41.6672C1.3313 30.9402 5.56698 25.6887 10.7899 25.6887H35.097V23.1972H18.9199V15.283C18.9199 11.2644 26.0741 8.00586 34.8985 8.00586C43.7229 8.00586 50.8757 11.2643 50.8757 15.2829Z" fill="url(#paint0_linear)"/>
<path d="M25.8841 18.8846C27.5079 18.8846 28.8243 17.5682 28.8243 15.9443C28.8243 14.3204 27.5079 13.004 25.8841 13.004C24.2602 13.004 22.9438 14.3204 22.9438 15.9443C22.9438 17.5682 24.2602 18.8846 25.8841 18.8846Z" fill="#030113"/>
<path d="M68.7627 40.7457C68.7627 42.3571 68.667 43.8456 68.487 45.21C68.487 45.21 68.487 45.2113 68.4856 45.2128C67.3499 48.9399 65.6114 52.4029 63.3798 55.4871V55.4885C62.1455 56.3128 60.7641 56.7228 59.3056 56.7228H34.9985V59.2156H51.1743V66.0457C49.7471 66.7913 48.2628 67.4414 46.73 67.9857C45.487 68.4285 44.2113 68.8014 42.9072 69.1028H42.9058C40.3642 69.69 37.7199 70 34.9999 70C29.3213 70 23.9599 68.6485 19.2184 66.2485V49.8643C19.2184 45.8 22.5142 42.5043 26.5784 42.5043H44.2656C49.3785 42.5043 53.5227 38.3599 53.5227 33.2472V24.7672H59.3055C64.5284 24.7671 68.7627 29.9099 68.7627 40.7457Z" fill="url(#paint1_linear)"/>
<path d="M47.1513 66.4685C47.1513 67.0243 46.9971 67.5442 46.73 67.9857C45.4871 68.4285 44.2113 68.8013 42.9072 69.1028H42.9058C41.9373 68.6228 41.2715 67.6228 41.2715 66.4685C41.2715 64.8443 42.5873 63.5285 44.2115 63.5285C45.8356 63.5285 47.1513 64.8443 47.1513 66.4685Z" fill="#030113"/>
<defs>
<linearGradient id="paint0_linear" x1="26.1035" y1="8.00586" x2="26.1035" y2="57.6458" gradientUnits="userSpaceOnUse">
<stop stop-color="#D090E0"/>
<stop offset="1" stop-color="#7F7FF7"/>
</linearGradient>
<linearGradient id="paint1_linear" x1="43.9906" y1="24.7672" x2="43.9906" y2="70" gradientUnits="userSpaceOnUse">
<stop stop-color="#D090E0"/>
<stop offset="1" stop-color="#7F7FF7"/>
</linearGradient>
</defs>
</svg>
